# xmcd
#
# Track frame offsets:
#	150
#	10050
#	24253
#	39174
#	52400
#	66888
#	81265
#	94660
#	106414
#	122498
#	142647
#	156131
#
# Disc length: 2329 seconds
#
# Revision: 1
# Processed by: cddbd v1.5.1PL0 Copyright (c) Steve Scherf et al.
# Submitted via: EasyCDDAExtractor 7.0.5.1
#
DISCID=8c09170c
DTITLE=Country Team - Je tu nadej
DYEAR=2003
DGENRE=Country
TTITLE0=Tisic krasnych lode
TTITLE1=Zostava stale v nas
TTITLE2=Sunday Afternoon
TTITLE3=Je tu nadej
TTITLE4=Fire
TTITLE5=Mississippi
TTITLE6=One Way Track
TTITLE7=Ak mas Chut Prist
TTITLE8=Scrappin The Barell
TTITLE9=Slub
TTITLE10=Kym ta mam
TTITLE11=After Midnight
EXTD=
EXTT0=
EXTT1=
EXTT2=
EXTT3=
EXTT4=
EXTT5=
EXTT6=
EXTT7=
EXTT8=
EXTT9=
EXTT10=
EXTT11=
PLAYORDER=
